<?xml version="1.0" standalone="no"?><!DOCTYPE svg PUBLIC "-//W3C//DTD SVG 1.1//EN" "http://www.w3.org/Graphics/SVG/1.1/DTD/svg11.dtd"><svg t="1670747296993" class="icon" viewBox="0 0 1024 1024" version="1.1" xmlns="http://www.w3.org/2000/svg" p-id="3332" data-darkreader-inline-fill="" xmlns:xlink="http://www.w3.org/1999/xlink" width="200" height="200"><path d="M897.7 1024H126.3C56.9 1024 0 967.2 0 897.7V126.3C0 56.9 56.7 0 126.3 0h771.5c69.4 0 126.3 56.8 126.3 126.3v771.5c-0.1 69.4-56.9 126.2-126.4 126.2z" fill="#231815" p-id="3333" data-darkreader-inline-fill="" style="--darkreader-inline-fill:#1c1311;"></path><path d="M105.7 736.4L306 544.7c0.4-0.4 1-0.4 1.4 0l54.8 57.2c0.4 0.4 0.4 1 0 1.4L161.8 795.1c-0.4 0.4-1 0.4-1.4 0l-54.8-57.2c-0.3-0.4-0.3-1.1 0.1-1.5z" fill="#231815" p-id="3334" data-darkreader-inline-fill="" style="--darkreader-inline-fill:#1c1311;"></path><path d="M826.7 587.4c-41.1-38.6-84.9-61.7-113.4-74 74.2-101.4 62-234.5 56.2-274-2.3-16.2-17.2-28-33.3-26.8-39.9 2.7-172.5 18.8-256 112.7-18-25.3-49.8-63.2-96.3-95.3-12.9-8.9-30.6-6.9-41.1 4.8-39.6 44-88.9 138.7-68.5 221-20.8-7.1-41-10.1-60.2-8.8-17.1 1.1-30.1 15.4-29.5 32.5 1.3 39 4.9 139.1 164.6 203.5l-94.5 110.6c-7.6 8.8-6.5 22.1 2.3 29.7 3.7 3.2 8.2 4.8 12.7 5 6.3 0.3 12.6-2.2 17-7.4l97.6-114.3C456.8 819.1 531.1 839.4 581 839.4c18.3 0 33.3-2.7 43.8-4.6 16.9-3 28.1-18.7 25.6-35.7-2.8-19-9.9-38.1-21.3-57 84.8 2.7 166.9-65.5 201.6-113.6 9.1-12.7 7.4-30.4-4-41.1zM613.6 698.1c-13.1-2.6-26.1 3.1-33.1 14.4-6.9 11.2-6.2 25.1 1.8 35.5 12 15.7 20.3 31.8 24.4 47.1-41.4 6.4-114.8 7.3-193.5-122.3l43.8-51.3c0.9 0.2 1.8 0.3 2.7 0.4h0.9l104.8 0.2c11.6 0 21.1-9.4 21.1-21s-9.3-20.8-21-21.1l-72.9-0.1 67.2-78.7c7.6-8.8 6.5-22.1-2.3-29.7-8.9-7.5-22.1-6.5-29.7 2.3l-65.3 76.5-8.6-69.3c-1.4-11.5-12-19.7-23.5-18.3-11.5 1.4-19.7 11.9-18.3 23.5l12.8 104c0.1 1.1 0.4 2.2 0.7 3.3l-47.3 55.4c-134.6-49.4-148.6-119.2-151-160.1 15.8 0.8 33.3 5.5 51.2 13.9 11.9 5.6 25.7 3.3 35.1-5.8 9.6-9.2 12.4-23.2 7.1-35.4-28.7-66.6 16.2-152.5 47.2-191.2 44 32.3 72 69.8 85.2 89.9 5.5 8.4 14.8 13.7 24.8 14.2 10.1 0.5 19.7-3.9 26-11.8C570.1 279.2 683 259.8 729 255.3c5.3 46 10.2 160.4-57.3 242.8-6.3 7.7-8.6 18.2-6 27.8 2.6 9.7 9.7 17.6 19.1 21.2 22.4 8.6 64.9 28.1 105.8 64.3-31.3 38.6-105.8 100.5-177 86.7z" fill="#FFE255" p-id="3335" data-darkreader-inline-fill="" style="--darkreader-inline-fill:#735f00;"></path></svg>